# xmcd CD database file
#
# Track frame offsets:
#	150
#	19632
#	33595
#	49545
#	73047
#	90272
#	109060
#	125067
#	143062
#	162567
#
# Disc length: 2451 seconds
#
# Revision: 2
# Processed by: cddbd v1.5.1PL0 Copyright (c) Steve Scherf et al.
# Submitted via: CDex 1.51
#
DISCID=8209910a
DTITLE=ツイスト - BEST and LAST(Disc2)
DYEAR=1996
DGENRE=Rock
TTITLE0=Rolling 16
TTITLE1=恋のCHU CHU CHU
TTITLE2=Shake
TTITLE3=Mr. MOON LIGHT
TTITLE4=SET ME FREE
TTITLE5=Bye Bye My Love
TTITLE6=Dancing with me
TTITLE7=迷酔
TTITLE8=Sweet Little Dancing
TTITLE9=Long Good-bye
EXTD=YEAR: 1996
EXTT0=
EXTT1=
EXTT2=
EXTT3=
EXTT4=
EXTT5=
EXTT6=
EXTT7=
EXTT8=
EXTT9=
PLAYORDER=
